# File created by Blade
# Date/Time:  Thu Jan 22 16:16:06 2015
# Frame Rate: 120.000 fps
#------------------------------------------------------
:FULLY-SPECIFIED
:DEGREES
943
root 4.959968 33.416892 -8.135463 54.778344 23.749631 14.840560
RightUpLeg -40.379105 -47.413013 -13.932905
RightLeg -7.701553 -0.000000 0.000000
RightFoot -2.635133 -32.011499 39.968143
RightToeBase 13.879289 -0.000000 -0.000000
LeftUpLeg -81.472096 -8.685579 14.703679
LeftLeg 26.670638 -0.000000 -0.000000
LeftFoot -3.519534 8.767499 -30.942883
LeftToeBase 10.478431 -0.000000 -0.000000
Spine 79.033327 -1.005980 -13.746586
RightShoulder 11.956389 21.286708 -53.618728
RightArm 64.549158 26.384776 40.746159
RightForeArm -36.361178 -0.000000 33.274601
RightHand 5.305387 -0.000000 -9.592547
RightHandThumb1 -24.326973 -0.000000 -32.862282
LeftShoulder 9.442304 28.847897 39.509019
LeftArm 95.552400 -60.876543 -47.460658
LeftForeArm 42.247269 -0.000000 12.121084
LeftHand -16.797235 -0.000000 9.426260
LeftHandThumb1 -26.253704 0.000000 33.147579
Head -10.562845 10.124727 -25.578304
944
root 5.023226 33.385314 -8.163490 54.663741 23.774614 14.884150
RightUpLeg -40.150374 -47.499038 -14.199276
RightLeg -7.665163 -0.000000 0.000000
RightFoot -2.525412 -32.058813 39.888293
RightToeBase 13.786363 -0.000000 -0.000000
LeftUpLeg -81.661342 -8.803224 14.570527
LeftLeg 27.221536 -0.000000 -0.000000
LeftFoot -3.680175 8.571710 -30.938992
LeftToeBase 10.565633 -0.000000 -0.000000
Spine 79.008962 -1.112477 -13.730849
RightShoulder 11.993231 21.118910 -53.532912
RightArm 64.539675 26.181145 40.314901
RightForeArm -36.079508 -0.000000 33.086451
RightHand 5.534119 0.000000 -9.724752
RightHandThumb1 -24.326973 -0.000000 -32.862282
LeftShoulder 9.389017 28.654991 39.501339
LeftArm 94.864141 -60.459276 -46.677791
LeftForeArm 42.038513 -0.000000 12.142081
LeftHand -16.994532 0.000000 9.482978
LeftHandThumb1 -26.253704 0.000000 33.147579
Head -10.497144 10.064733 -25.409896
945
root 5.079751 33.355652 -8.185188 54.547455 23.740829 14.882847
RightUpLeg -40.030347 -47.562553 -14.369851
RightLeg -7.638817 -0.000000 0.000000
RightFoot -2.443665 -32.021040 39.857318
RightToeBase 13.841181 -0.000000 -0.000000
LeftUpLeg -81.823038 -8.843408 14.403872
LeftLeg 27.776167 -0.000000 -0.000000
LeftFoot -3.862133 8.369571 -30.927610
LeftToeBase 10.371539 -0.000000 -0.000000
Spine 78.941087 -1.098248 -13.676639
RightShoulder 12.008020 20.885266 -53.441688
RightArm 64.563995 26.008096 39.986459
RightForeArm -35.939616 -0.000000 32.870999
RightHand 5.523127 0.000000 -10.231005
RightHandThumb1 -24.326973 -0.000000 -32.862282
LeftShoulder 9.386666 28.377995 39.515853
LeftArm 94.285082 -60.028672 -45.973182
LeftForeArm 41.833582 -0.000000 12.120250
LeftHand -17.030777 -0.000000 9.373150
LeftHandThumb1 -26.253704 0.000000 33.147579
Head -10.429906 9.876761 -25.192306
946
root 5.132945 33.325286 -8.206758 54.404026 23.698119 14.832276
RightUpLeg -39.813123 -47.502369 -14.620011
RightLeg -7.648898 -0.000000 0.000000
RightFoot -2.371626 -32.086206 39.844930
RightToeBase 13.775871 -0.000000 -0.000000
LeftUpLeg -81.968166 -8.834094 14.258313
LeftLeg 28.306412 -0.000000 -0.000000
LeftFoot -4.006716 8.136356 -30.903358
LeftToeBase 10.429449 -0.000000 -0.000000
Spine 78.860778 -1.046388 -13.607983
RightShoulder 12.046107 20.655715 -53.366013
RightArm 64.609524 25.866767 39.735583
RightForeArm -35.739658 -0.000000 32.644160
RightHand 5.590946 -0.000000 -10.548092
RightHandThumb1 -24.326973 -0.000000 -32.862282
LeftShoulder 9.344633 28.083904 39.528647
LeftArm 93.935442 -59.539525 -45.537554
LeftForeArm 41.722981 -0.000000 12.112173
LeftHand -17.065465 0.000000 9.199311
LeftHandThumb1 -26.253704 0.000000 33.147579
Head -10.415202 9.767153 -24.988577
947
root 5.185089 33.293213 -8.228236 54.247456 23.659697 14.818289
RightUpLeg -39.465269 -47.430049 -14.962655
RightLeg -7.768788 -0.000000 0.000000
RightFoot -2.276164 -32.233277 39.717584
RightToeBase 13.789071 -0.000000 -0.000000
LeftUpLeg -82.089708 -8.847443 14.062039
LeftLeg 28.839359 -0.000000 -0.000000
LeftFoot -4.150428 7.889690 -30.878374
LeftToeBase 10.589892 -0.000000 -0.000000
Spine 78.801009 -1.001270 -13.560714
RightShoulder 12.111730 20.479823 -53.236950
RightArm 64.621577 25.685363 39.382437
RightForeArm -35.434287 -0.000000 32.327291
RightHand 5.693766 -0.000000 -10.856070
RightHandThumb1 -24.326973 -0.000000 -32.862282
LeftShoulder 9.358180 27.842926 39.570347
LeftArm 93.604685 -59.146902 -45.073302
LeftForeArm 41.548405 0.000000 12.005637
LeftHand -17.060254 -0.000000 9.116018
LeftHandThumb1 -26.253704 0.000000 33.147579
Head -10.460039 9.750365 -24.739375
948
root 5.235634 33.263413 -8.248436 54.097047 23.609108 14.781088
RightUpLeg -39.311314 -47.448164 -15.126103
RightLeg -7.793523 -0.000000 0.000000
RightFoot -2.165073 -32.221233 39.670159
RightToeBase 13.804100 -0.000000 -0.000000
LeftUpLeg -82.217320 -8.846118 13.899562
LeftLeg 29.357899 -0.000000 -0.000000
LeftFoot -4.271275 7.712832 -30.801447
LeftToeBase 10.588254 -0.000000 -0.000000
Spine 78.739222 -0.962180 -13.524063
RightShoulder 12.151062 20.321679 -53.158147
RightArm 64.715061 25.522307 39.140248
RightForeArm -35.172734 -0.000000 31.999359
RightHand 5.757757 -0.000000 -11.047560
RightHandThumb1 -24.326973 -0.000000 -32.862282
LeftShoulder 9.330650 27.635700 39.520290
LeftArm 93.422798 -58.800936 -44.780397
LeftForeArm 41.562286 -0.000000 11.998696
LeftHand -17.029896 0.000000 8.826602
LeftHandThumb1 -26.253704 0.000000 33.147579
Head -10.614143 9.635375 -24.620541
949
root 5.284158 33.232539 -8.266140 53.936501 23.587169 14.741319
RightUpLeg -39.225838 -47.566186 -15.168520
RightLeg -7.793783 -0.000000 0.000000
RightFoot -2.037656 -32.076668 39.678359
RightToeBase 13.912334 -0.000000 -0.000000
LeftUpLeg -82.332630 -8.863106 13.781612
LeftLeg 29.861292 -0.000000 -0.000000
LeftFoot -4.471605 7.546614 -30.875085
LeftToeBase 10.706597 -0.000000 -0.000000
Spine 78.667923 -0.927451 -13.472289
RightShoulder 12.250232 20.147983 -53.069492
RightArm 64.823862 25.431733 39.102546
RightForeArm -35.047708 -0.000000 31.777692
RightHand 5.787703 -0.000000 -11.040414
RightHandThumb1 -24.326973 -0.000000 -32.862282
LeftShoulder 9.300122 27.383262 39.502900
LeftArm 93.534711 -58.392211 -44.862484
LeftForeArm 42.064102 -0.000000 11.944950
LeftHand -16.819585 -0.000000 8.276924
LeftHandThumb1 -26.253704 0.000000 33.147579
Head -10.733430 9.568428 -24.421656
